<?xml version="1.0" encoding="UTF-8" standalone="no"?>
<!-- Generator: Adobe Illustrator 18.1.1, SVG Export Plug-In . SVG Version: 6.00 Build 0)  -->

<svg
   xmlns:dc="http://purl.org/dc/elements/1.1/"
   xmlns:cc="http://creativecommons.org/ns#"
   xmlns:rdf="http://www.w3.org/1999/02/22-rdf-syntax-ns#"
   xmlns:svg="http://www.w3.org/2000/svg"
   xmlns="http://www.w3.org/2000/svg"
   xmlns:sodipodi="http://sodipodi.sourceforge.net/DTD/sodipodi-0.dtd"
   xmlns:inkscape="http://www.inkscape.org/namespaces/inkscape"
   version="1.1"
   id="Capa_1"
   x="0px"
   y="0px"
   viewBox="0 0 20 20"
   xml:space="preserve"
   inkscape:version="0.91 r13725"
   sodipodi:docname="arrow-pointing-left.svg"
   width="20"
   height="20"><metadata
     id="metadata4177"><rdf:RDF><cc:Work
         rdf:about=""><dc:format>image/svg+xml</dc:format><dc:type
           rdf:resource="http://purl.org/dc/dcmitype/StillImage" /><dc:title></dc:title></cc:Work></rdf:RDF></metadata><defs
     id="defs4175" /><sodipodi:namedview
     pagecolor="#ffffff"
     bordercolor="#666666"
     borderopacity="1"
     objecttolerance="10"
     gridtolerance="10"
     guidetolerance="10"
     inkscape:pageopacity="0"
     inkscape:pageshadow="2"
     inkscape:window-width="1680"
     inkscape:window-height="987"
     id="namedview4173"
     showgrid="false"
     inkscape:zoom="20.044515"
     inkscape:cx="13.976262"
     inkscape:cy="12.92142"
     inkscape:window-x="-8"
     inkscape:window-y="-8"
     inkscape:window-maximized="1"
     inkscape:current-layer="Capa_1" /><g
     id="g4137"
     transform="matrix(0.06575342,0,0,0.063593,-0.33972572,0)"><g
       id="g4139"><path
         style="fill:#bac3c7"
         d="m 125,157.5 116,-116 c 10,-10 10,-24 0,-34 -10,-10 -25,-10 -35,0 l -133,133 c -5,5 -7,10 -7,17 0,7 2,12 7,17 l 133,133 c 5,5 11,7 17,7 6,0 13,-2 18,-7 10,-10 10,-24 0,-34 l -116,-116 z"
         id="path4141"
         inkscape:connector-curvature="0" /></g></g><g
     id="g4143"
     transform="translate(0,-294.5)" /><g
     id="g4145"
     transform="translate(0,-294.5)" /><g
     id="g4147"
     transform="translate(0,-294.5)" /><g
     id="g4149"
     transform="translate(0,-294.5)" /><g
     id="g4151"
     transform="translate(0,-294.5)" /><g
     id="g4153"
     transform="translate(0,-294.5)" /><g
     id="g4155"
     transform="translate(0,-294.5)" /><g
     id="g4157"
     transform="translate(0,-294.5)" /><g
     id="g4159"
     transform="translate(0,-294.5)" /><g
     id="g4161"
     transform="translate(0,-294.5)" /><g
     id="g4163"
     transform="translate(0,-294.5)" /><g
     id="g4165"
     transform="translate(0,-294.5)" /><g
     id="g4167"
     transform="translate(0,-294.5)" /><g
     id="g4169"
     transform="translate(0,-294.5)" /><g
     id="g4171"
     transform="translate(0,-294.5)" /></svg>