<?xml version="1.0" encoding="UTF-8" standalone="no"?><svg xmlns="http://www.w3.org/2000/svg" xmlns:cc="http://creativecommons.org/ns#" xmlns:dc="http://purl.org/dc/elements/1.1/" xmlns:inkscape="http://www.inkscape.org/namespaces/inkscape" xmlns:rdf="http://www.w3.org/1999/02/22-rdf-syntax-ns#" xmlns:sodipodi="http://sodipodi.sourceforge.net/DTD/sodipodi-0.dtd" xmlns:svg="http://www.w3.org/2000/svg" width="12" height="12" viewBox="0 0 11.531 11.531" inkscape:version="0.91 r13725" sodipodi:docname="icon-arrowb.svg"><metadata><rdf:RDF><cc:Work><dc:format>image/svg+xml</dc:format><dc:type rdf:resource="http://purl.org/dc/dcmitype/StillImage"/><dc:title/></cc:Work></rdf:RDF></metadata><sodipodi:namedview bordercolor="#666666" borderopacity="1" gridtolerance="10" guidetolerance="10" objecttolerance="10" pagecolor="#ffffff" showgrid="false" inkscape:current-layer="Layer_1" inkscape:cx="38.653" inkscape:cy="-16.763" inkscape:pageopacity="0" inkscape:pageshadow="2" inkscape:window-height="987" inkscape:window-maximized="1" inkscape:window-width="1680" inkscape:window-x="-8" inkscape:window-y="-8" inkscape:zoom="8.706"/><path fill="#fff" d="M5.75 6.79L1.438 2.477a.625.625 0 0 0-.446-.184.626.626 0 0 0-.446.184l-.378.378a.626.626 0 0 0-.184.446c0 .169.065.327.184.446l5.136 5.136c.12.12.278.184.448.184.17 0 .328-.065.447-.184l5.132-5.132a.626.626 0 0 0 .184-.446.626.626 0 0 0-.184-.446l-.378-.378a.632.632 0 0 0-.892 0l-4.31 4.31z" inkscape:connector-curvature="0"/></svg>